PLEASE SEED!!

Falling In Reverse - The Drug In Me Is You -2011 (UJ.rip)
--------------------------------------------------------
Format                           : AVI
Format/Info                      : Audio Video Interleave
File size                        : 67.6 MiB
Duration                         : 3mn 48s
Overall bit rate                 : 2 479 Kbps
Writing application              : Lavf52.39.1

Video
ID                               : 0
Format                           : MPEG-4 Visual
Format profile                   : Advanced Simple@L1
Format settings, BVOP            : 2
Format settings, QPel            : No
Format settings, GMC             : No warppoints
Format settings, Matrix          : Default (H.263)
Codec ID                         : divx
Codec ID/Info                    : Mainly used by Google
Codec ID/Hint                    : DivX
Duration                         : 3mn 48s
Bit rate                         : 2 403 Kbps
Width                            : 720 pixels
Height                           : 576 pixels
Display aspect ratio             : 4:3
Frame rate                       : 24.000 fps
Standard                         : PAL
Color space                      : YUV
Chroma subsampling               : 4:2:0
Bit depth                        : 8 bits
Scan type                        : Progressive
Compression mode                 : Lossy
Bits/(Pixel*Frame)               : 0.241
Stream size                      : 65.5 MiB (97%)
Writing library                  : Lavc52.37.0

Audio
ID                               : 1
Format                           : MPEG Audio
Format version                   : Version 1
Format profile                   : Layer 3
Mode                             : Joint stereo
Mode extension                   : MS Stereo
Codec ID                         : 55
Codec ID/Hint                    : MP3
Duration                         : 3mn 48s
Bit rate mode                    : Constant
Bit rate                         : 64.0 Kbps
Channel(s)                       : 2 channels
Sampling rate                    : 44.1 KHz
Compression mode                 : Lossy
Stream size                      : 1.75 MiB (3%)
Alignment                        : Aligned on interleaves
Interleave, duration             : 26 ms (0.63 video frame)
Writing library                  : LAME3.96.1

-------------------------------------------------------------
 
http://thepiratebay.org/user/utpaljoshi123
